<?xml version="1.0" standalone="no"?>
<!DOCTYPE svg PUBLIC "-//W3C//DTD SVG 20010904//EN"
 "http://www.w3.org/TR/2001/REC-SVG-20010904/DTD/svg10.dtd">
<svg version="1.0" xmlns="http://www.w3.org/2000/svg"
 width="700.000000pt" height="700.000000pt" viewBox="0 0 700.000000 700.000000"
 preserveAspectRatio="xMidYMid meet">
<metadata>
Created by potrace 1.14, written by Peter Selinger 2001-2017
</metadata>
<g transform="translate(0.000000,700.000000) scale(0.100000,-0.100000)"
fill="#000000" stroke="none">
<path d="M3215 6994 c-549 -58 -989 -193 -1420 -433 -896 -502 -1531 -1371
-1729 -2366 -54 -276 -61 -347 -61 -695 0 -347 7 -418 61 -695 204 -1031 901
-1947 1843 -2424 420 -213 835 -330 1311 -372 166 -14 558 -6 719 15 1175 156
2173 867 2696 1919 181 363 281 692 342 1118 25 177 25 701 0 878 -82 580
-267 1067 -577 1525 -507 749 -1288 1276 -2163 1461 -259 55 -372 67 -687 70
-162 1 -313 1 -335 -1z m305 -374 c0 -29 -2 -30 -44 -30 -24 0 -64 -3 -90 -6
l-46 -7 0 -50 0 -50 80 6 80 6 0 -29 c0 -29 -1 -30 -52 -30 -92 0 -98 -4 -98
-68 l0 -55 90 6 90 7 6 -26 c4 -14 4 -27 2 -29 -2 -3 -61 -8 -130 -11 l-126
-7 -6 74 c-3 41 -8 129 -11 196 l-6 122 83 4 c46 1 104 4 131 5 46 2 47 1 47
-28z m237 14 c19 -5 24 -23 49 -155 15 -82 30 -149 34 -149 3 0 31 62 61 138
51 124 59 137 82 140 63 8 62 -2 -27 -193 l-83 -180 -37 1 c-20 1 -39 4 -42 6
-5 6 -94 367 -94 386 0 13 22 15 57 6z m-748 -58 c23 -12 58 -63 49 -71 -2 -1
-17 -5 -34 -8 -23 -4 -35 -1 -47 14 -34 39 -127 12 -127 -36 0 -21 38 -42 90
-50 111 -16 151 -46 152 -114 0 -49 -19 -76 -77 -102 -77 -36 -175 -16 -205
41 -14 26 -12 28 28 39 27 8 33 6 47 -15 30 -46 135 -23 135 30 0 34 -20 46
-97 58 -100 15 -143 48 -143 109 0 85 141 150 229 105z m1387 -69 c5 -6 46
-408 42 -412 -3 -3 -19 -2 -36 1 -26 5 -32 11 -32 33 0 57 -9 67 -71 85 -78
21 -82 21 -103 -15 -17 -28 -21 -30 -55 -24 -20 4 -37 8 -39 10 -2 1 48 78
110 169 l113 166 35 -6 c19 -3 36 -7 36 -7z m-2081 -327 c76 -76 137 -141 135
-143 -47 -37 -53 -38 -86 -6 l-31 30 -67 -33 -66 -32 6 -46 c6 -44 5 -46 -30
-63 -36 -17 -36 -16 -36 6 0 12 -7 101 -15 197 -8 96 -15 182 -15 191 0 15 32
37 55 38 6 1 73 -62 150 -139z m2789 -8 c52 -36 80 -91 72 -138 l-7 -35 -32
20 c-24 15 -31 26 -29 45 5 38 -39 78 -81 74 -28 -3 -32 -7 -35 -34 -2 -24 6
-41 34 -75 57 -67 78 -122 64 -164 -13 -40 -53 -75 -84 -75 -12 0 -46 12 -74
26 -69 34 -102 82 -102 146 0 27 3 48 6 48 3 0 18 -7 33 -16 21 -13 27 -23 27
-51 0 -69 102 -115 125 -56 8 22 5 32 -18 66 -73 103 -83 122 -83 157 0 95 92
126 184 62z m-3243 -133 c33 -36 46 -90 30 -125 -6 -14 -11 -26 -11 -27 0 -1
34 -20 75 -42 41 -22 75 -43 75 -47 0 -4 -13 -16 -29 -27 l-29 -21 -62 35
c-71 40 -77 41 -109 16 l-24 -18 42 -61 41 -61 -31 -21 c-16 -12 -32 -21 -33
-19 -2 2 -50 76 -106 163 l-103 159 29 24 c132 108 194 126 245 72z m3679
-203 c0 -19 -120 -401 -127 -403 -5 -2 -19 7 -31 20 -21 22 -22 26 -8 65 l15
41 -54 45 c-29 25 -57 46 -63 46 -5 0 -21 -9 -36 -21 l-26 -20 -30 21 c-16 12
-30 24 -29 28 0 4 75 55 166 113 l167 107 28 -21 c15 -11 28 -21 28 -21z
m-1750 -122 c971 -141 1724 -889 1877 -1865 25 -160 25 -501 0 -654 -80 -487
-287 -894 -627 -1235 -187 -188 -379 -324 -615 -436 -703 -334 -1543 -271
-2184 164 -327 221 -572 502 -746 857 -163 329 -228 610 -228 980 0 363 65
648 223 970 115 237 229 395 424 591 192 192 352 308 581 420 263 129 549 207
835 228 97 7 352 -4 460 -20z m-2330 1 c21 -25 -20 -62 -62 -57 -43 5 -81 -32
-76 -73 5 -49 28 -52 105 -17 88 41 125 41 164 3 48 -48 40 -120 -20 -184 -34
-37 -73 -57 -111 -57 -37 0 -70 16 -70 34 0 19 47 60 55 47 13 -23 63 -12 89
20 30 35 33 61 10 83 -21 22 -33 20 -106 -14 -94 -45 -143 -39 -174 21 -25 50
-11 102 45 160 43 45 51 49 93 49 29 0 50 -6 58 -15z m4355 -169 l26 -34 -71
-141 c-38 -78 -68 -141 -66 -141 2 0 64 27 137 59 l134 60 27 -32 c15 -18 27
-37 28 -44 0 -6 -62 -70 -137 -142 l-137 -131 -23 28 -22 27 62 60 c34 33 82
77 105 98 24 21 42 40 40 42 -1 1 -64 -24 -138 -56 l-135 -58 -18 21 c-17 20
-15 24 54 155 39 74 69 136 67 138 -2 3 -48 -40 -102 -94 l-99 -99 -24 29 -24
28 133 130 c73 72 138 130 145 131 7 0 24 -15 38 -34z m-4625 -301 c91 -30
171 -57 178 -60 10 -4 9 -11 -5 -35 -15 -26 -22 -30 -43 -24 -54 15 -63 10
-103 -47 l-39 -57 23 -39 c21 -38 22 -40 4 -66 -9 -15 -20 -27 -24 -27 -3 0
-54 80 -113 178 -106 176 -106 177 -90 204 9 16 23 28 32 28 9 0 90 -25 180
-55z m4988 -217 c9 -15 14 -29 12 -31 -10 -7 -295 -203 -307 -210 -12 -7 -50
49 -40 59 19 19 304 212 310 211 5 -2 16 -15 25 -29z m-5230 -200 c78 -44 144
-84 147 -88 7 -11 -16 -60 -27 -60 -6 0 -39 16 -75 36 -36 21 -68 33 -73 28
-4 -5 -21 -39 -38 -75 l-29 -65 74 -42 73 -43 -16 -30 c-9 -18 -21 -28 -28
-26 -14 6 -319 176 -324 182 -2 2 4 17 13 35 l16 31 64 -35 c35 -20 68 -36 73
-36 7 0 37 58 68 135 3 6 -27 28 -65 50 l-69 39 16 32 c13 29 18 32 36 22 12
-6 85 -47 164 -90z m5436 -216 c31 -74 56 -137 56 -141 0 -4 -11 -13 -24 -19
-23 -10 -25 -8 -46 44 -12 30 -24 54 -26 54 -2 0 -67 -31 -144 -70 -77 -38
-143 -70 -148 -70 -7 0 -35 61 -29 66 1 1 66 34 145 73 78 39 142 75 142 80 0
5 -9 30 -21 56 -11 25 -19 48 -17 49 16 13 44 23 50 18 3 -4 31 -67 62 -140z
m-5478 -329 c-12 -35 -17 -38 -56 -43 -44 -5 -44 -5 -62 -65 -23 -77 -23 -76
15 -105 32 -24 33 -27 22 -62 l-10 -38 -160 131 c-88 72 -161 137 -163 144 -2
6 2 23 7 38 l10 26 153 4 c84 1 176 4 205 5 l52 2 -13 -37z m5622 -85 c5 -18
8 -35 6 -38 -1 -3 -34 -14 -73 -25 -43 -11 -71 -24 -71 -33 0 -12 31 -144 35
-149 1 -2 34 7 73 19 40 11 75 19 77 16 3 -3 9 -19 14 -35 l9 -29 -187 -56
c-199 -59 -198 -59 -200 -2 -1 17 12 24 79 43 44 13 80 24 80 25 -3 19 -40
149 -44 153 -3 3 -40 -4 -81 -17 -42 -12 -78 -20 -81 -18 -2 3 -7 18 -10 35
l-6 31 98 31 c55 16 135 41 179 54 44 14 83 26 87 26 4 1 11 -14 16 -31z
m-6028 -373 c0 -25 -5 -38 -17 -42 -36 -12 -53 -36 -53 -73 0 -41 14 -60 46
-60 17 0 33 17 66 72 27 45 56 79 77 92 31 18 37 18 75 5 55 -19 79 -64 72
-135 -6 -66 -28 -110 -69 -134 -40 -25 -82 -27 -73 -4 3 9 6 27 6 40 0 19 5
24 24 24 32 0 47 21 53 73 10 85 -53 92 -103 12 -70 -111 -109 -138 -167 -116
-91 35 -86 226 6 266 49 22 57 19 57 -20z m6140 -203 l0 -38 -187 -26 c-104
-15 -189 -25 -191 -23 -2 1 -5 18 -8 37 l-6 34 179 26 c235 34 213 35 213 -10z
m-3930 -2397 c23 -5 31 -22 75 -148 65 -190 65 -190 70 -186 2 3 18 67 35 144
17 77 32 140 33 142 2 1 22 -3 45 -9 32 -8 41 -15 38 -27 -3 -9 -21 -92 -41
-186 -52 -244 -53 -247 -73 -241 -9 2 -29 7 -43 10 -24 5 -32 21 -84 172 -34
96 -61 160 -65 152 -4 -7 -20 -73 -35 -146 -22 -102 -32 -131 -43 -127 -7 3
-21 5 -30 5 -46 1 -46 8 2 226 55 249 52 237 73 230 10 -3 29 -8 43 -11z
m1604 -33 c76 -44 129 -188 108 -289 -6 -29 -20 -67 -32 -82 -53 -75 -190 -94
-265 -37 -60 46 -90 122 -90 227 0 74 3 90 25 121 55 82 170 109 254 60z
m1259 -33 c59 -68 67 -159 18 -203 -28 -25 -33 -5 -11 40 11 23 17 48 14 62
-7 23 -24 31 -24 10 0 -35 -52 -58 -95 -42 -44 17 -59 113 -23 151 35 38 79
31 121 -18z m-3933 -110 c0 -39 -34 -79 -67 -79 -23 0 -25 -4 -38 -84 -6 -35
-8 -37 -22 -23 -13 12 -14 25 -6 71 9 51 8 57 -12 76 l-22 21 -27 -42 c-25
-37 -30 -40 -43 -26 -13 13 -7 26 59 121 l73 106 53 -54 c41 -43 52 -61 52
-87z m1960 72 c33 -15 61 -52 75 -98 6 -21 3 -23 -37 -23 -37 1 -46 5 -63 33
-17 27 -27 33 -63 35 -85 6 -117 -46 -110 -181 3 -68 7 -79 33 -107 25 -26 36
-30 80 -30 61 0 75 12 75 62 l0 38 -45 0 c-45 0 -45 0 -45 35 l0 35 90 0 91 0
-3 -97 -3 -98 -48 -24 c-37 -18 -65 -24 -116 -24 -96 0 -152 34 -186 115 -22
54 -20 191 4 243 21 47 70 92 109 101 15 3 32 7 37 9 19 6 90 -7 125 -24z
m1748 -208 c55 -92 61 -108 48 -121 -12 -12 -21 -2 -67 77 -29 50 -56 91 -59
91 -3 0 -13 -12 -22 -27 -14 -23 -18 -25 -23 -11 -6 15 39 98 54 98 4 0 35
-48 69 -107z m-3530 44 c48 -37 67 -67 41 -67 -6 0 -28 14 -49 30 -47 37 -56
37 -74 1 -15 -28 -15 -30 22 -57 20 -15 39 -29 41 -30 2 -2 1 -10 -3 -19 -5
-14 -12 -12 -47 16 -40 32 -42 32 -56 13 -36 -49 -36 -51 17 -91 27 -20 50
-41 50 -45 0 -23 -27 -14 -82 28 -35 26 -64 48 -66 49 -1 1 27 53 63 114 44
74 70 109 78 104 7 -4 36 -24 65 -46z m3316 -119 c61 -82 74 -172 30 -207 -54
-43 -99 -22 -144 69 -31 61 -31 112 -1 144 36 38 83 35 115 -6z m-3104 -24
c43 -18 70 -55 70 -99 0 -27 -1 -28 -24 -19 -9 4 -16 18 -16 35 0 29 -30 59
-61 59 -24 0 -67 -54 -79 -100 -13 -49 2 -84 43 -101 26 -11 31 -10 43 6 19
26 18 38 -6 53 -11 7 -17 18 -14 26 5 12 13 10 45 -11 21 -14 39 -27 39 -30 0
-14 -43 -85 -55 -89 -24 -10 -83 16 -110 47 -58 70 -9 213 82 238 2 1 21 -6
43 -15z m2854 -90 c29 -29 30 -64 3 -146 -14 -43 -23 -78 -21 -78 3 0 26 11
53 25 45 23 61 23 61 3 0 -11 -148 -84 -156 -76 -3 4 6 42 20 85 37 111 34
163 -9 163 -27 0 -42 -16 -47 -50 -4 -34 -38 -40 -38 -7 0 64 94 121 134 81z
m-264 -203 c0 -121 -8 -201 -21 -201 -10 0 -12 195 -3 264 12 82 24 49 24 -63z
m-1976 -78 c17 -56 34 -105 37 -108 4 -3 15 28 25 69 10 42 21 81 25 87 9 15
43 3 36 -14 -2 -6 -17 -61 -32 -122 -16 -60 -29 -111 -30 -112 -4 -7 -45 11
-45 20 0 19 -63 212 -66 202 -1 -5 -12 -47 -24 -91 -19 -71 -24 -81 -41 -77
-12 4 -18 11 -15 22 3 9 17 65 32 124 24 96 29 108 47 105 17 -2 27 -22 51
-105z m1778 80 c29 -26 23 -82 -16 -157 -19 -36 -31 -66 -27 -66 4 0 29 7 55
16 41 14 50 14 57 3 6 -11 -10 -20 -74 -39 -102 -32 -105 -26 -47 90 43 84 47
121 14 134 -22 9 -64 -20 -64 -43 0 -18 -27 -37 -37 -27 -3 3 -2 19 2 36 12
56 97 90 137 53z m-2254 -40 c5 -17 -26 -29 -40 -15 -6 6 -7 15 -3 22 9 14 37
9 43 -7z m2002 -33 c22 -22 25 -51 9 -82 -9 -16 -7 -23 10 -35 15 -10 21 -25
21 -52 0 -47 -24 -71 -78 -78 -32 -4 -44 -1 -61 16 -25 25 -28 73 -6 91 14 12
13 16 -6 36 -30 32 -28 73 5 101 33 28 79 30 106 3z m-1167 -30 c22 -24 27
-40 27 -80 0 -119 -72 -180 -159 -135 -71 36 -70 188 1 240 35 25 97 13 131
-25z m881 -65 c20 -212 20 -195 -1 -195 -17 0 -21 9 -27 61 -3 34 -6 79 -6 99
0 47 -6 52 -41 34 -27 -13 -29 -13 -29 4 0 15 65 59 91 61 4 1 9 -28 13 -64z
m-261 -92 c4 -115 3 -123 -14 -123 -16 0 -19 8 -19 44 0 92 -12 167 -26 162
-8 -4 -21 -9 -30 -12 -12 -5 -15 -2 -13 11 4 17 92 60 96 46 1 -3 3 -61 6
-128z m-475 -80 c5 -17 -26 -29 -40 -15 -6 6 -7 15 -3 22 9 14 37 9 43 -7z"/>
<path d="M4298 6359 c-21 -33 -38 -64 -38 -69 0 -7 90 -34 94 -28 6 7 -7 158
-13 158 -3 0 -23 -27 -43 -61z"/>
<path d="M2185 6145 c4 -44 8 -81 10 -83 4 -4 95 41 95 48 0 3 -25 30 -56 60
l-56 55 7 -80z"/>
<path d="M1724 5974 c-21 -15 -41 -28 -43 -30 -6 -5 60 -104 70 -104 4 0 24
14 44 31 40 36 48 84 17 112 -25 23 -43 21 -88 -9z"/>
<path d="M5390 5739 c-30 -22 -56 -44 -58 -48 -2 -5 15 -23 37 -40 l39 -31 23
67 c12 38 24 74 27 81 7 20 -10 13 -68 -29z"/>
<path d="M3156 5413 c-24 -71 -22 -228 4 -273 54 -95 70 -132 70 -164 0 -43
26 -74 45 -54 27 28 95 199 95 238 0 71 -58 187 -133 268 -43 45 -62 42 -81
-15z"/>
<path d="M4185 5231 c-97 -69 -130 -115 -145 -201 -7 -36 -18 -94 -26 -130
-20 -94 -19 -130 6 -130 12 0 26 12 35 30 9 17 50 58 93 91 130 102 135 113
147 307 7 113 4 114 -110 33z"/>
<path d="M3678 5203 c-14 -27 -40 -83 -58 -126 -38 -92 -37 -131 5 -225 29
-64 29 -63 9 -202 -3 -22 0 -42 9 -55 14 -19 16 -17 43 28 16 26 52 83 81 128
86 135 89 181 23 354 -21 55 -41 110 -45 123 -11 37 -40 26 -67 -25z"/>
<path d="M2612 5103 c8 -80 57 -218 94 -267 25 -33 53 -54 107 -80 75 -35 111
-72 122 -122 14 -60 16 -64 40 -64 13 0 26 4 29 9 7 11 -19 193 -40 281 -20
81 -70 159 -128 199 -24 17 -48 31 -51 31 -4 0 -36 14 -72 30 -35 17 -74 30
-85 30 -19 0 -20 -5 -16 -47z"/>
<path d="M3226 4878 c-11 -38 -36 -198 -36 -228 1 -101 44 -196 111 -246 55
-40 73 -65 90 -125 15 -54 26 -69 50 -69 20 0 23 44 23 310 -1 145 -16 182
-122 292 -72 74 -108 94 -116 66z"/>
<path d="M4390 4839 c-125 -91 -178 -164 -195 -269 -10 -61 -58 -153 -109
-209 -44 -48 -50 -81 -15 -81 26 0 55 15 105 55 22 18 69 45 105 60 133 55
181 139 208 359 10 87 2 126 -26 126 -10 -1 -43 -19 -73 -41z"/>
<path d="M2193 4863 c-71 -10 -50 -61 66 -159 69 -60 117 -84 167 -84 37 0 88
-27 112 -59 27 -37 49 -39 64 -6 23 50 -102 249 -182 290 -28 14 -173 26 -227
18z"/>
<path d="M3920 4681 c-104 -41 -174 -105 -223 -205 -23 -46 -27 -68 -27 -139
0 -80 20 -177 42 -204 6 -7 19 -13 30 -13 18 0 20 6 18 53 -3 73 -4 71 43 97
46 25 71 51 118 123 31 47 36 61 64 192 27 124 22 131 -65 96z"/>
<path d="M4743 4670 c-62 -31 -143 -110 -203 -198 -14 -21 -35 -50 -47 -66
-13 -16 -23 -33 -23 -38 0 -16 31 -20 48 -6 22 19 94 45 157 57 145 27 221 84
250 186 25 84 21 90 -55 92 -55 3 -75 -2 -127 -27z"/>
<path d="M2727 4533 c-16 -15 -6 -61 18 -83 14 -13 45 -64 69 -114 52 -106 76
-131 171 -181 71 -37 145 -99 145 -121 0 -17 28 -44 45 -44 22 0 37 38 30 71
-4 17 -19 45 -35 62 -27 32 -34 50 -66 162 -21 72 -42 107 -101 162 -55 52
-92 69 -173 82 -76 13 -94 13 -103 4z"/>
<path d="M2078 4380 c-27 -16 -22 -36 15 -59 17 -11 61 -50 97 -87 94 -97 137
-114 275 -113 76 0 124 -4 155 -15 60 -21 67 -20 74 10 9 34 -7 51 -56 64 -21
6 -47 21 -56 32 -62 78 -108 118 -165 143 -56 26 -75 29 -192 32 -83 2 -136 0
-147 -7z"/>
<path d="M4325 4341 c-44 -15 -99 -38 -123 -50 -60 -31 -195 -129 -266 -192
-122 -110 -270 -308 -351 -472 -22 -43 -45 -82 -51 -88 -9 -8 -50 28 -155 136
-219 224 -311 291 -474 346 -61 21 -89 24 -215 24 -137 0 -145 -1 -148 -20 -2
-17 9 -23 89 -43 229 -56 365 -148 550 -373 121 -147 177 -247 205 -370 25
-110 25 -393 0 -474 -38 -122 -88 -209 -187 -322 -27 -31 -46 -60 -41 -65 4
-4 35 -1 67 8 69 18 260 21 315 4 19 -5 72 -10 116 -10 65 0 83 3 88 16 10 27
7 95 -9 177 -18 93 -20 412 -5 582 28 311 59 452 136 611 73 155 259 357 442
482 143 98 150 138 17 93z"/>
<path d="M4778 4255 c-2 -3 -63 -10 -134 -16 -225 -18 -266 -36 -393 -164 -50
-51 -91 -100 -91 -109 0 -8 9 -20 21 -27 17 -9 25 -7 42 9 38 35 72 41 224 40
140 -2 151 -1 193 23 56 31 178 182 179 222 1 20 -4 27 -17 27 -10 0 -21 -2
-24 -5z"/>
<path d="M3408 4114 c-56 -17 -112 -70 -129 -122 -19 -58 -6 -148 28 -191 91
-113 268 -107 338 13 44 75 31 200 -27 252 -57 53 -137 71 -210 48z"/>
<path d="M4875 4027 c-64 -22 -115 -51 -195 -112 -106 -80 -120 -103 -80 -125
16 -8 26 -4 55 21 l36 32 147 1 c131 2 153 5 200 26 54 23 105 80 96 104 -8
21 -106 58 -164 62 -30 2 -73 -2 -95 -9z"/>
<path d="M2006 3974 c-61 -22 -103 -52 -127 -90 -27 -45 -17 -56 63 -73 31 -7
75 -21 97 -32 72 -34 167 -22 309 40 l73 32 55 -25 c61 -28 79 -26 89 11 8 33
3 37 -75 62 -36 11 -110 36 -165 55 -86 30 -113 35 -190 35 -52 0 -106 -6
-129 -15z"/>
<path d="M2075 3533 c-32 -75 -85 -271 -105 -382 -25 -142 -27 -356 -4 -486
51 -296 207 -565 449 -773 141 -121 356 -254 448 -277 l27 -7 0 58 c0 78 -23
115 -92 150 -273 137 -499 349 -621 583 -46 89 -87 207 -113 328 -46 216 -26
570 46 777 24 72 24 66 0 66 -13 0 -25 -12 -35 -37z"/>
<path d="M4564 3553 c18 -57 57 -251 66 -328 13 -116 13 -348 0 -453 -46 -365
-226 -666 -512 -855 -101 -67 -217 -126 -321 -162 -59 -21 -81 -34 -92 -54
-20 -41 -28 -96 -16 -119 10 -19 14 -19 58 -7 223 61 504 250 675 452 218 259
318 530 318 863 0 194 -31 368 -102 576 -28 84 -37 99 -57 102 -18 3 -22 0
-17 -15z"/>
<path d="M2804 3208 c-11 -31 -7 -143 6 -204 39 -183 113 -371 197 -502 56
-87 69 -98 106 -88 29 8 117 115 117 142 0 11 -15 38 -34 60 -69 80 -151 247
-228 459 -46 129 -66 155 -119 155 -30 0 -39 -5 -45 -22z"/>
<path d="M3052 3158 c-7 -7 -12 -43 -12 -90 0 -61 6 -92 25 -140 14 -34 25
-65 25 -70 0 -19 91 -198 116 -227 35 -41 56 -39 93 10 49 67 49 85 -5 184
-26 48 -64 130 -85 183 -45 116 -79 162 -117 162 -16 0 -33 -5 -40 -12z"/>
<path d="M2605 3120 c-20 -38 -20 -168 0 -252 20 -89 108 -350 144 -431 37
-83 54 -91 171 -84 89 6 120 13 120 28 0 5 -20 37 -44 72 -61 88 -127 230
-181 392 -50 150 -108 284 -128 297 -29 18 -66 8 -82 -22z"/>
<path d="M2461 2891 c-48 -48 -31 -250 35 -430 67 -178 129 -287 281 -491 119
-159 155 -232 161 -323 5 -79 1 -76 133 -101 103 -19 387 -22 501 -4 l77 11
-1 72 c0 53 5 81 20 112 30 58 111 143 224 234 99 81 145 136 167 199 6 19 14
114 18 210 6 180 16 244 52 323 26 57 26 72 1 97 -15 15 -33 20 -74 20 -49 0
-57 -3 -85 -35 -51 -58 -70 -111 -91 -245 -19 -129 -98 -193 -238 -192 -43 1
-90 6 -106 11 -51 20 -260 13 -416 -14 -156 -27 -268 -32 -319 -14 -18 7 -43
28 -59 53 -40 58 -103 208 -153 361 -23 72 -49 138 -57 148 -20 22 -47 22 -71
-2z"/>
<path d="M1056 5208 c17 -30 85 -128 88 -128 6 0 58 82 54 85 -4 4 -138 55
-145 55 -2 0 -1 -6 3 -12z"/>
<path d="M592 4239 c2 -4 30 -28 63 -54 l60 -46 16 48 c11 32 12 49 5 50 -36
6 -146 8 -144 2z"/>
<path d="M4149 1111 c-24 -25 -29 -38 -29 -78 0 -61 23 -142 50 -176 45 -57
138 -40 160 29 21 62 -12 199 -57 234 -38 30 -88 26 -124 -9z"/>
<path d="M5472 1158 c-24 -24 -9 -78 28 -98 15 -8 24 -6 40 10 26 26 25 46 -5
75 -27 28 -45 31 -63 13z"/>
<path d="M1520 1094 l-22 -35 23 -25 c12 -13 30 -24 40 -24 16 0 49 34 49 51
0 11 -51 69 -60 69 -5 0 -18 -16 -30 -36z"/>
<path d="M5042 828 c-20 -20 -13 -60 21 -123 32 -61 56 -76 82 -55 21 17 18
47 -9 105 -36 77 -66 101 -94 73z"/>
<path d="M4086 424 c-9 -8 -16 -22 -16 -29 0 -13 26 -45 36 -45 19 0 44 24 44
43 0 43 -35 60 -64 31z"/>
<path d="M4097 313 c-4 -3 -7 -18 -7 -33 0 -49 42 -66 75 -30 26 29 7 70 -33
70 -16 0 -32 -3 -35 -7z"/>
<path d="M2903 417 c-25 -11 -32 -25 -43 -81 -16 -79 33 -136 87 -101 30 20
43 53 43 109 0 59 -41 94 -87 73z"/>
</g>
</svg>
